<svg width="64" height="38" viewBox="0 0 64 38" fill="none" xmlns="http://www.w3.org/2000/svg">
<path d="M2.3125 15.4609H3.60156L14.0781 27.1328V15.4609H15.2266V31.3164H14.6406L3.49609 18.5312V31H2.3125V15.4609ZM24.5195 31.2578C23.7383 31.2578 23.0039 31.1055 22.3164 30.8008C21.6367 30.4961 21.0391 30.082 20.5234 29.5586C20.0156 29.0352 19.6133 28.4219 19.3164 27.7188C19.0195 27.0078 18.8711 26.2539 18.8711 25.457C18.8711 24.4961 19.0039 23.6094 19.2695 22.7969C19.543 21.9766 19.9258 21.2695 20.418 20.6758C20.918 20.082 21.5156 19.6172 22.2109 19.2812C22.9062 18.9453 23.6797 18.7773 24.5312 18.7773C25.2812 18.7773 25.9688 18.918 26.5938 19.1992C27.2188 19.4727 27.7578 19.8438 28.2109 20.3125C28.6641 20.7734 29.0156 21.3086 29.2656 21.918C29.5156 22.5273 29.6406 23.1641 29.6406 23.8281H20.6992C20.6992 24.6328 20.8086 25.3789 21.0273 26.0664C21.2461 26.7539 21.5508 27.3477 21.9414 27.8477C22.3398 28.3477 22.8086 28.7383 23.3477 29.0195C23.8945 29.3008 24.4961 29.4414 25.1523 29.4414C25.6992 29.4414 26.2227 29.3633 26.7227 29.207C27.2305 29.043 27.6836 28.832 28.082 28.5742C28.4883 28.3086 28.8281 28.0078 29.1016 27.6719C29.3828 27.3281 29.5781 26.9766 29.6875 26.6172L29.9805 26.7578C29.8008 27.3828 29.5234 27.9688 29.1484 28.5156C28.7812 29.0547 28.3516 29.5312 27.8594 29.9453C27.3672 30.3516 26.832 30.6719 26.2539 30.9062C25.6836 31.1406 25.1055 31.2578 24.5195 31.2578ZM26.8867 22.8672H27.1211C27.1211 22.4141 27.0352 21.9922 26.8633 21.6016C26.6914 21.2109 26.4531 20.875 26.1484 20.5938C25.8516 20.3047 25.5 20.0781 25.0938 19.9141C24.6875 19.75 24.2539 19.668 23.793 19.668C23.4023 19.668 23.0273 19.75 22.668 19.9141C22.3164 20.0703 22 20.293 21.7188 20.582C21.4375 20.8633 21.207 21.1992 21.0273 21.5898C20.8477 21.9805 20.7422 22.4023 20.7109 22.8555L26.8867 22.8672ZM33.9883 19L37.9258 27.9766L41.6641 19.2461L45.4844 27.9766L48.9414 19H49.8203L45.1562 31.1289H44.5469L41.0781 23.0781L37.6211 31.1289H37.0938L31.8438 19H33.9883ZM55.9492 30.4258C56.3086 30.4258 56.6367 30.3789 56.9336 30.2852C57.2383 30.1836 57.5 30.0508 57.7188 29.8867C57.9375 29.7227 58.1055 29.5352 58.2227 29.3242C58.3477 29.1055 58.4102 28.8828 58.4102 28.6562C58.4102 28.2734 58.3164 27.9414 58.1289 27.6602C57.9492 27.3711 57.707 27.1172 57.4023 26.8984C57.1055 26.6719 56.7656 26.4688 56.3828 26.2891C56 26.1016 55.6094 25.9141 55.2109 25.7266C54.8125 25.5391 54.4219 25.3398 54.0391 25.1289C53.6562 24.9102 53.3125 24.6641 53.0078 24.3906C52.7109 24.1094 52.4688 23.7852 52.2812 23.418C52.1016 23.0508 52.0117 22.6172 52.0117 22.1172C52.0117 21.6406 52.1055 21.1992 52.293 20.793C52.4883 20.3789 52.7578 20.0234 53.1016 19.7266C53.4453 19.4297 53.8516 19.1992 54.3203 19.0352C54.7969 18.8633 55.3125 18.7773 55.8672 18.7773C56.2344 18.7773 56.5781 18.8047 56.8984 18.8594C57.2266 18.9141 57.5469 19.0234 57.8594 19.1875C58.1719 19.3438 58.4883 19.5703 58.8086 19.8672C59.1367 20.1562 59.4844 20.5391 59.8516 21.0156L59.2305 21.5781C58.8164 20.8984 58.3203 20.3945 57.7422 20.0664C57.1719 19.7383 56.5391 19.5742 55.8438 19.5742C55.4688 19.5742 55.125 19.6172 54.8125 19.7031C54.5 19.7812 54.2305 19.8945 54.0039 20.043C53.7852 20.1836 53.6133 20.3516 53.4883 20.5469C53.3711 20.7422 53.3125 20.9492 53.3125 21.168C53.3125 21.543 53.4102 21.8711 53.6055 22.1523C53.8086 22.4258 54.0742 22.6719 54.4023 22.8906C54.7305 23.1094 55.1016 23.3125 55.5156 23.5C55.9375 23.6875 56.3633 23.875 56.793 24.0625C57.2305 24.25 57.6562 24.4531 58.0703 24.6719C58.4922 24.8828 58.8672 25.1289 59.1953 25.4102C59.5234 25.6836 59.7852 26.0039 59.9805 26.3711C60.1836 26.7305 60.2852 27.1523 60.2852 27.6367C60.2852 28.1445 60.1953 28.6211 60.0156 29.0664C59.8438 29.5039 59.5781 29.8867 59.2188 30.2148C58.8594 30.5352 58.4062 30.7891 57.8594 30.9766C57.3203 31.1641 56.6836 31.2578 55.9492 31.2578C55.6211 31.2578 55.2812 31.2305 54.9297 31.1758C54.5859 31.1211 54.2344 31.0156 53.875 30.8594C53.5234 30.6953 53.1641 30.4688 52.7969 30.1797C52.4297 29.8828 52.0625 29.5 51.6953 29.0312L52.4453 28.3633C52.7031 28.7383 52.9609 29.0586 53.2188 29.3242C53.4766 29.582 53.7422 29.793 54.0156 29.957C54.2969 30.1211 54.5938 30.2422 54.9062 30.3203C55.2266 30.3906 55.5742 30.4258 55.9492 30.4258Z" fill="#333333"/>
<path d="M48.5632 13.912C48.1072 13.776 47.7992 13.644 47.6392 13.516C47.4792 13.396 47.3992 13.228 47.3992 13.012C47.3992 12.772 47.4552 12.436 47.5672 12.004C47.6792 11.564 47.8232 11.076 47.9992 10.54C48.1832 10.004 48.3912 9.444 48.6232 8.86C48.8552 8.276 49.0912 7.716 49.3312 7.18C49.5712 6.644 49.8032 6.156 50.0272 5.716C50.2592 5.268 50.4632 4.92 50.6392 4.672L50.5552 4.168C50.6672 4.168 50.8232 4.196 51.0232 4.252C51.2232 4.308 51.4232 4.376 51.6232 4.456C51.8312 4.536 52.0112 4.62 52.1632 4.708C52.3232 4.788 52.4112 4.856 52.4272 4.912C52.3872 5.104 52.3552 5.396 52.3312 5.788C52.3072 6.172 52.2952 6.584 52.2952 7.024C52.2952 7.896 52.3272 8.752 52.3912 9.592C52.4632 10.424 52.6232 11.272 52.8712 12.136C52.9992 11.496 53.1352 10.86 53.2792 10.228C53.4312 9.588 53.5872 8.98 53.7472 8.404C53.9072 7.82 54.0672 7.28 54.2272 6.784C54.3872 6.288 54.5392 5.856 54.6832 5.488C54.8352 5.112 54.9752 4.82 55.1032 4.612C55.2312 4.396 55.3472 4.28 55.4512 4.264C55.5392 4.28 55.6352 4.316 55.7392 4.372C55.8432 4.42 55.9432 4.48 56.0392 4.552C56.1352 4.624 56.2232 4.704 56.3032 4.792C56.3832 4.88 56.4472 4.968 56.4952 5.056C56.2392 5.16 55.9832 5.404 55.7272 5.788C55.4792 6.172 55.2392 6.64 55.0072 7.192C54.7832 7.736 54.5712 8.328 54.3712 8.968C54.1792 9.608 54.0072 10.24 53.8552 10.864C53.7112 11.48 53.5952 12.052 53.5072 12.58C53.4272 13.108 53.3832 13.532 53.3752 13.852C53.3752 13.868 53.3792 13.88 53.3872 13.888C53.3632 13.896 53.3352 13.9 53.3032 13.9C53.2792 13.9 53.2552 13.9 53.2312 13.9C52.8632 13.9 52.5352 13.852 52.2472 13.756C51.9672 13.668 51.7832 13.54 51.6952 13.372C51.5272 12.7 51.3872 12.052 51.2752 11.428C51.1632 10.804 51.0672 10.18 50.9872 9.556C50.9152 8.932 50.8552 8.304 50.8072 7.672C50.7672 7.032 50.7352 6.364 50.7112 5.668C50.5592 5.908 50.3992 6.224 50.2312 6.616C50.0632 7 49.8992 7.424 49.7392 7.888C49.5792 8.352 49.4232 8.84 49.2712 9.352C49.1272 9.864 48.9992 10.364 48.8872 10.852C48.7752 11.34 48.6872 11.804 48.6232 12.244C48.5592 12.676 48.5272 13.052 48.5272 13.372C48.5272 13.54 48.5272 13.66 48.5272 13.732C48.5352 13.804 48.5472 13.864 48.5632 13.912ZM56.1786 10.648C56.1786 10.088 56.2426 9.54 56.3706 9.004C56.5066 8.46 56.6946 7.948 56.9346 7.468C57.1746 6.98 57.4586 6.536 57.7866 6.136C58.1226 5.728 58.4866 5.376 58.8786 5.08C59.2786 4.784 59.7026 4.556 60.1506 4.396C60.5986 4.228 61.0586 4.144 61.5306 4.144C62.0826 4.144 62.5106 4.26 62.8146 4.492C63.1266 4.724 63.2826 5.048 63.2826 5.464C63.2826 5.624 63.2586 5.788 63.2106 5.956C63.1706 6.124 63.1066 6.292 63.0186 6.46C62.9386 6.62 62.8426 6.776 62.7306 6.928C62.6186 7.08 62.4946 7.212 62.3586 7.324C62.1506 7.292 61.9706 7.2 61.8186 7.048C61.6666 6.888 61.5706 6.704 61.5306 6.496C61.8106 6.264 62.0306 6.024 62.1906 5.776C62.3586 5.52 62.4426 5.288 62.4426 5.08C62.4426 4.728 62.2226 4.552 61.7826 4.552C61.5986 4.552 61.4066 4.592 61.2066 4.672C61.0146 4.744 60.8186 4.848 60.6186 4.984C60.4186 5.12 60.2226 5.284 60.0306 5.476C59.8466 5.668 59.6746 5.88 59.5146 6.112C58.4026 7.712 57.8466 9.348 57.8466 11.02C57.8466 11.612 57.9386 12.088 58.1226 12.448C58.3066 12.808 58.5506 13.02 58.8546 13.084C59.1986 13.004 59.6346 12.784 60.1626 12.424C60.6906 12.064 61.2666 11.596 61.8906 11.02C61.9706 11.1 62.0186 11.184 62.0346 11.272C61.8026 11.576 61.5626 11.868 61.3146 12.148C61.0666 12.428 60.8186 12.684 60.5706 12.916C60.3306 13.148 60.0906 13.352 59.8506 13.528C59.6186 13.704 59.4026 13.84 59.2026 13.936C58.2106 13.92 57.4586 13.636 56.9466 13.084C56.4346 12.532 56.1786 11.72 56.1786 10.648Z" fill="#333333"/>
</svg>
