<svg width="90" height="90" viewBox="0 0 90 90" fill="none" xmlns="http://www.w3.org/2000/svg">
<mask id="mask0_2_1320" style="mask-type:alpha" maskUnits="userSpaceOnUse" x="0" y="0" width="90" height="90">
<circle cx="44.8525" cy="44.8525" r="44.8525" fill="#D9D9D9"/>
</mask>
<g mask="url(#mask0_2_1320)">
<path d="M69.4412 81.8823C69.2353 82.0294 69 82.1765 68.7942 82.3235C68.5589 82.4706 68.353 82.6176 68.1177 82.7353C67.9118 82.8529 67.7353 82.9706 67.5295 83.0882C67.5001 83.1176 67.4706 83.1176 67.4412 83.1471C66.7648 83.5588 66.0589 83.9412 65.353 84.2941C65.1471 84.4118 64.9118 84.5294 64.7059 84.6176C64.7059 84.6176 64.6765 84.6471 64.6471 84.6471C64.4118 84.7647 64.1765 84.8824 63.9412 85C63.4706 85.2353 62.9706 85.4412 62.5 85.6471C62.2648 85.7647 62 85.8529 61.7648 85.9412C61.5295 86.0294 61.2648 86.1471 61.0295 86.2353C60.7942 86.3235 60.5295 86.4412 60.2942 86.5294C60.2942 86.5294 60.2942 86.5294 60.2648 86.5294C60.0295 86.6176 59.7648 86.7059 59.5295 86.7941C59 86.9706 58.4412 87.1471 57.9118 87.3235C57.7353 87.3823 57.5295 87.4412 57.353 87.5C56.7942 87.6765 56.2353 87.8235 55.6765 87.9412C55.4706 88 55.2648 88.0294 55.0295 88.0882C54.5001 88.2059 53.9412 88.3235 53.4118 88.4412C53.2942 88.4706 53.2059 88.4706 53.0883 88.5C52.9118 88.5294 52.7059 88.5588 52.5295 88.5882C52.2648 88.6176 52.0295 88.6765 51.7648 88.7059C51.6471 88.7353 51.5295 88.7353 51.4118 88.7647C51.2648 88.7941 51.0883 88.8235 50.9118 88.8235C50.4412 88.8824 49.9412 88.9412 49.4706 89C49.3236 89.0294 49.1471 89.0294 49.0001 89.0588H48.9706C48.7648 89.0882 48.5589 89.0882 48.353 89.1176C48.1471 89.1471 47.9412 89.1471 47.7353 89.1471C47.6177 89.1471 47.4706 89.1765 47.353 89.1765C47.1177 89.1765 46.9118 89.2059 46.7059 89.2059C46.4118 89.2059 46.1471 89.2353 45.853 89.2353C45.5589 89.2353 45.2942 89.2353 45.0001 89.2353C44.7942 89.2353 44.5883 89.2353 44.3824 89.2353C31.9706 89.0588 20.8236 83.7941 12.853 75.4412C12.853 75.4412 12.853 75.4118 12.8236 75.4118C11.9412 74.6176 12.7059 70.3824 16.2648 67.7059C20.7353 64.3235 31.4412 62.2059 31.4412 62.2059C31.4412 62.2059 35.5883 61.5294 50.9706 64.7353C59.9706 66.6176 66.8236 69.3529 70.6471 76.7647C71.4412 78.2941 72.2353 80.6471 69.4412 81.8823Z" fill="white"/>
<path d="M51.0589 64.4118C56.7059 65.5588 62.7354 66.7941 67.3824 70.5294C68.9412 71.7941 69.9706 73.6471 70.8236 75.4412C71.2354 76.3235 71.6471 77.2353 71.9706 78.2059C72.1471 78.853 72.4118 79.5883 72.2648 80.353C72.2354 80.5588 72.0589 80.8235 71.9118 80.9706C71.2354 81.6471 70.5001 82.0588 69.7648 82.5883C65.4412 85.5883 60.4706 87.7059 55.3236 88.8235C43.853 91.3235 31.4412 89.3824 21.353 83.353C18.0001 81.3235 14.9118 78.853 12.2648 75.9412C11.9706 75.5883 11.9706 75 11.9706 74.6177C12.0001 73.7353 12.2353 72.8824 12.5295 72.0883C13.2353 70.2647 14.1471 68.4412 15.7059 67.1765C16.8236 66.4118 18.0295 65.7647 19.2648 65.2353C23.1471 63.5883 27.2353 62.4412 31.4412 61.9706C31.7942 61.9412 31.853 62.4412 31.5001 62.5C27.4706 63.3235 23.4706 64.5588 19.7353 66.2353C18.3824 66.9118 16.9412 67.5 15.853 68.5588C14.8236 69.6765 14.0883 71.0588 13.5001 72.4706C13.1177 73.3235 12.853 74.6765 12.9706 75.353C14.8236 77.5588 17.0001 79.5 19.353 81.1765C32.2353 90.1765 51.7942 90.7647 65.5001 83.2647C66.7354 82.5883 67.9412 81.8235 69.0883 81.0294C69.6471 80.6471 70.2354 80.3236 70.6765 79.8824C70.7059 79.853 70.6765 79.8824 70.6765 79.9118C70.6765 79.9412 70.6471 79.9706 70.6471 79.9706C70.6765 79.6177 70.5589 79.1471 70.4118 78.6765C69.8824 76.9706 69.0295 75.1765 68.1177 73.6177C66.6765 71.2941 64.2354 69.8235 61.7648 68.6471C60.0589 67.853 58.2648 67.2353 56.4412 66.6471C54.6177 66.0588 52.7648 65.5588 50.9118 65.1177C50.4412 65 50.5883 64.3235 51.0589 64.4118Z" fill="black"/>
<path d="M79.706 100.235L5.20596 98.5882C9.7942 83.2647 12.353 69.7647 15.7942 67.7059C22.3236 63.7941 28.206 63.1765 31.706 62.8529C32.5883 65.0294 35.9413 72.1765 42.9118 75C49.6471 77.7353 53.6471 75.9118 54.2648 72.8823C54.6471 70.9412 53.4413 67.7647 52.8236 66.7353C52.4707 66.4412 52.2354 66 52.1177 65.5588L51.8824 64.5882C52.3824 64.4706 52.8824 64.3529 53.3824 64.1765C58.7354 65.1176 66.853 69.5294 68.5883 72C70.6765 74.9706 73.5589 82.4118 73.4413 86.5C73.2648 93.1471 79.706 100.235 79.706 100.235Z" fill="white"/>
<path d="M80.4118 100.559C58.2354 100.235 27.0589 99.9117 5.20596 99.3529C4.79419 99.3529 4.47066 99 4.47066 98.5882C6.85302 90.5588 8.76478 82.4706 11.3236 74.4706C11.6471 73.4706 12.0001 72.5 12.4118 71.5C13.1177 69.9412 13.8236 68.2059 15.2942 67.147C16.1471 66.647 17.0589 66.147 17.9413 65.7059C22.206 63.5882 26.9413 62.5 31.6471 62.1176C32.0001 62.0882 32.2942 62.2941 32.4118 62.5882C34.6471 67.9412 38.706 72.9117 44.3824 74.7647C47.1765 75.7353 52.1471 76.5588 53.4707 73.0882C53.9118 71.4118 53.2648 69.647 52.6766 68.0588C52.5295 67.7353 52.3824 67.4118 52.2354 67.147L52.3824 67.3235C51.8236 66.8529 51.4707 66.0588 51.353 65.3529L51.206 64.7647C51.1177 64.3529 51.3824 63.9412 51.7942 63.8529C52.2942 63.7353 52.7648 63.6176 53.2354 63.4706C57.353 63.7647 65.7942 67.9412 68.706 70.8823C70.4118 72.8529 71.3824 75.4117 72.353 77.7941C73.0589 79.7059 73.6766 81.6765 74.0295 83.7059C74.1766 84.4706 74.2648 85.2647 74.2648 86.0588C74.2354 87.2353 74.3236 88.4412 74.6471 89.6176C75.6177 93.2941 77.7648 96.6765 80.206 99.5882L80.2648 99.647L80.2942 99.6765C80.2942 99.6765 80.2648 99.647 80.3824 99.7647C80.4707 100 80.5001 100.353 80.4118 100.559ZM79.0295 99.9412C79.0001 100.029 78.9413 100.147 78.9707 100.294C78.9707 100.441 79.0295 100.559 79.0883 100.647C79.1766 100.765 79.1471 100.706 79.1471 100.735L79.1177 100.706C78.9118 100.412 78.5001 99.8235 78.2942 99.5C75.8824 95.7059 73.5001 91.5 73.4118 86.8823C73.4707 83.8529 72.5295 80.9412 71.5295 78.147C70.8236 76.2647 70.0001 74.4412 68.9413 72.7353C68.6766 72.3235 68.4118 71.9118 68.0589 71.5588C67.0001 70.5294 65.706 69.7059 64.4118 68.9706C60.9707 67.0588 57.2354 65.4706 53.3236 64.9706L53.6766 64.9412C53.1471 65.1176 52.6177 65.2353 52.0883 65.3529L52.6766 64.4412C52.853 65.0588 52.8824 65.7941 53.3824 66.2059C53.706 66.5882 53.8824 67.0882 54.0883 67.5C54.5589 68.6176 54.8824 69.7647 55.0883 70.9706C55.6177 73.8529 53.9118 76.2353 51.0883 76.8823C48.706 77.4412 46.206 76.9412 43.9413 76.2059C37.853 74.2647 33.4413 68.9412 31.0589 63.1765L31.8236 63.647C27.1765 63.5882 22.5589 64.5 18.353 66.5C17.4413 66.9412 16.5001 67.4412 15.6471 67.9706C14.4413 68.9412 13.853 70.4706 13.2354 71.8529C11.3236 76.6765 10.206 81.7353 8.94125 86.7353C8.0589 90.2647 6.88243 95.2647 6.00008 98.8235L5.29419 97.8529C26.5883 98.2941 57.3824 99.2353 79.0295 99.9412Z" fill="black"/>
<path d="M18.2648 100.118C18.2648 100.118 17.8824 90.5882 17.5001 88.8235" stroke="black" stroke-width="5.1512" stroke-miterlimit="10" stroke-linecap="round" stroke-linejoin="round"/>
<path d="M70.3823 100.118C70.3823 100.118 69.5 94.2059 69.5 93.1765C69.5 92.1765 70.2647 88.8824 70.3823 86" stroke="black" stroke-width="5.1512" stroke-miterlimit="10" stroke-linecap="round" stroke-linejoin="round"/>
<path d="M26.9414 92.7059V89.2059L35.3825 92.647C35.3531 92.647 28.559 92.8235 26.9414 92.7059Z" fill="white"/>
<path d="M47.0589 81.3235L46.0001 103.265C46.0001 103.265 55.3236 109.618 55.3236 109.441C55.3236 109.265 59.7354 101.559 59.7354 101.559L52.853 80.4412C52.853 80.4412 51.9707 81.3529 47.0589 81.3235Z" fill="black"/>
<path d="M49.1767 74.2648C49.1767 74.2648 45.1472 78.0589 44.6178 79.0589C44.0884 80.0589 46.8825 81.6471 46.8825 81.6471C46.8825 81.6471 51.3825 82.5883 53.4119 80.7648C53.4119 80.7648 54.559 79.5001 54.3237 78.2942C54.1178 77.1177 49.1767 74.2648 49.1767 74.2648Z" fill="black"/>
<path d="M30.5 60.0294C30.5294 60 30.5588 59.9706 30.5882 59.9412C30.9117 59.5588 31.3823 59.3235 31.9117 59.2647C34.3823 58.9706 34.647 59.2353 35.1764 60.0588C37.7353 64.0588 41.0588 71.7059 49.2059 74.2941L41.3529 82.2941C40.9411 82.8235 40.2058 82.9118 39.6764 82.5294C37.147 80.647 32.0882 74.8823 29.2941 67.8529C28.7059 66.3823 28.5882 64.7647 28.8823 63.2353C28.8235 63.1765 30 60.7353 30.5 60.0294Z" fill="white"/>
<path d="M30.2941 59.8823C30.7353 59.4706 31.2353 59.1176 31.8529 59.0294C32.6764 58.9412 33.5294 58.7647 34.3823 58.9412C35.2647 59.2059 35.5882 60.1765 36.0882 60.8529C38.2941 64.4706 40.5882 68.1471 43.9706 70.7059C45.1764 71.6765 46.5588 72.4118 47.9706 73C48.5 73.2059 49.0588 73.3823 49.5882 73.6176C50.0294 73.8235 50.1176 74.4706 49.7353 74.7647C47.5588 76.5294 45.5 78.4412 43.4706 80.4118C43 80.8823 41.9117 81.9706 41.5 82.3823C41.0294 83 40.0882 83.0882 39.5 82.6176L39.2058 82.3823C38.2058 81.5588 37.2941 80.6176 36.4117 79.6765C33.2647 76.2059 30.6176 72.2647 28.8529 67.9118C28.2353 66.3529 28.0882 64.5882 28.4706 62.9706C28.9117 61.8823 29.5 60.7941 30.2941 59.8823ZM30.8823 60.2941C30.2353 61.2059 29.6764 62.3235 29.2058 63.3529L29.2353 63.2647C29.0588 64.2353 29.0588 65.2353 29.2647 66.1765C29.4411 67.1765 29.8823 68.0588 30.2647 68.9706C31.0588 70.8529 32.0588 72.6471 33.1176 74.3823C34.1764 76.1176 35.3823 77.7941 36.7353 79.3529C37.647 80.4118 38.6176 81.4412 39.7353 82.2941C39.8235 82.3823 39.9117 82.4118 40.0294 82.4706C40.4411 82.6471 40.9411 82.5 41.2058 82.147L42.1764 81.1471L43.147 80.1176C45.0882 78.0882 46.9411 75.9706 48.6764 73.7647L48.9706 74.9706C46.8529 74.3235 44.8529 73.1765 43.1176 71.7353C39.6764 68.9412 37.4411 65.0588 35.3235 61.2941C35.0588 60.8823 34.7941 60.3529 34.5294 59.9706C34.4117 59.7941 34.3235 59.7353 34.147 59.6765C33.4706 59.5 32.6764 59.6176 31.9706 59.7059C31.5 59.7647 31.1176 59.9706 30.8823 60.2941Z" fill="black"/>
<path d="M57.4117 79.3825C57.2353 80.353 56.5294 81.2648 55.3529 80.0589L49.147 74.2648C49.147 74.2648 52.7647 70.8236 51.8823 64.5883C53.0882 64.3236 54.2353 63.9413 55.2941 63.4413C55.3235 63.5001 55.7353 64.2942 56.2059 65.6178C57.2059 68.3531 58.4706 73.3825 57.4117 79.3825Z" fill="white"/>
<path d="M57.5883 79.4118C57.4118 80.8235 56.353 81.4118 55.2648 80.3235L53.1766 78.3824L51.0883 76.4412L49.0001 74.5C48.8824 74.3824 48.8824 74.2059 48.9707 74.0882C50.5883 72.2059 51.4118 69.6471 51.4118 67.1765C51.4118 66.2941 51.2942 65.4412 51.1471 64.5588C51.0883 64.2059 51.3824 63.8824 51.7648 63.853C52.9413 63.8235 54.1177 63.6765 55.2942 63.3824C55.3236 63.3529 55.3824 63.3824 55.3824 63.4118C57.7354 68.353 58.4707 74.0294 57.5883 79.4118ZM57.2648 79.3529C57.9707 74.1177 57.206 68.6765 54.7648 64L54.706 63.9118C54.6765 63.8824 54.6471 63.8235 54.6471 63.8235L55.6471 64.1177C54.5001 64.6765 53.2942 65.0588 52.0589 65.3235L52.6471 64.4706C52.8236 66.2941 52.6766 68.1471 52.1471 69.8824C51.5883 71.6177 50.706 73.2059 49.3824 74.5V74.0588C50.4413 75.0294 52.5295 77 53.5589 77.9706L55.6177 79.9412C56.353 80.7059 57.0589 80.4118 57.2648 79.3529Z" fill="black"/>
<path d="M53.8233 72.2353C53.2056 75.2647 49.2056 77.0882 42.4703 74.3529C35.4703 71.5294 32.4409 64.7941 31.6762 62.7941C35.8233 55.0294 32.9409 49.647 32.9409 49.647C42.4998 48.8235 50.8527 60 50.8527 60L52.1468 65.5294C52.2645 66 52.4998 66.4117 52.8527 66.7059C53.4704 67.7941 54.2056 70.2941 53.8233 72.2353Z" fill="white"/>
<path d="M31.5293 62.8823C32.0881 62.0294 32.4411 61.0294 32.6764 60.0588C33.1175 58.0294 33.2646 55.9706 33.294 53.9117V53.147C33.2058 52.3823 32.9411 51.5882 32.647 50.8823C32.2646 49.9411 33.647 49.3529 34.0881 50.2941C34.147 50.4117 34.147 50.6176 34.147 50.7353C34.2352 54.7353 34.4117 59.8823 31.8822 63.2058C31.7058 63.3823 31.3528 63.1176 31.5293 62.8823Z" fill="black"/>
<path d="M51.1763 59.9412C51.6174 60.2059 51.7645 60.5588 51.8233 60.9118C51.9998 61.6177 51.941 62.3824 52.1174 63.1177C52.2645 63.8235 52.7057 64.5 52.8233 65.2353C52.9704 66 53.4116 67.6177 53.588 68.4118C53.6469 68.5882 53.5292 68.7941 53.3233 68.8235C53.2057 68.8529 53.1174 68.8235 53.0292 68.7647C52.6469 68.4412 52.4704 68.1176 52.2351 67.7059C51.8527 67 51.588 66.3529 51.3527 65.5588C51.1469 64.8529 51.2351 64.0882 51.0586 63.3529C50.9116 62.6471 50.4998 61.9706 50.3527 61.2353C50.2645 60.8824 50.2351 60.5 50.4998 60.0588C50.6763 59.8824 50.9704 59.8235 51.1763 59.9412Z" fill="black"/>
<path d="M53.294 67.7059C47.6764 67.4117 43.0881 65.647 38.6175 57.6765C42.3822 61 46.8234 62.2647 51.4999 62.8529L52.1175 65.5588C52.2352 66.0294 52.9411 67.4117 53.294 67.7059Z" fill="black"/>
<path d="M53.0588 66.6176C54.0588 68.5 54.6471 70.8529 54.0294 72.9412C53.5588 74.4118 52.2059 75.5 50.7353 75.9118C47.3235 76.8235 43.3824 75.3824 40.353 73.7647C36.6177 71.6765 33.853 68.1765 32.0882 64.3529C31.9706 64.0588 32.3824 63.8235 32.5588 64.1176C33.1765 65.3529 33.8824 66.5588 34.6765 67.6471C35.4706 68.7647 36.3824 69.7941 37.4118 70.7059C40.4118 73.4118 44.4706 75.0882 48.5294 75.0882C52.7059 74.9706 54.2941 72.7647 53.3235 68.7059C53.1765 68.0588 52.9412 67.3824 52.6177 66.8235C52.4412 66.5882 52.8824 66.3235 53.0588 66.6176Z" fill="black"/>
<path d="M64.4411 31.2941C64.9705 33.7647 63.2058 36.4117 63.2058 43C63.2058 49.7353 61.9705 57.0588 56.8823 62.147C52.4999 66.5294 47.4705 66.3529 41.5587 61.7353C40.7352 61.0882 37.8528 58.9117 37.1175 58.1764C36.2646 57.3235 35.794 56.7059 35.3823 56.0588C35.0293 55.4706 35.1175 52.0588 34.6175 51.2647C33.3234 49.1176 33.0587 51.4412 31.3823 49.5588C29.0587 47.0294 26.2646 41.9412 27.647 32.9412C29.8823 18.3529 41.4411 16.647 49.9999 18.2647C58.6175 19.9117 63.0293 24.7941 64.4411 31.2941Z" fill="white"/>
<path d="M32.8528 52.1764C32.1764 51.0588 31.3234 50.0588 30.5293 49.0294C29.7352 47.9412 29.0881 46.7941 28.5587 45.5588C25.5587 38.2941 25.9999 28.7941 31.3234 22.6764C34.9705 18.5 40.7352 17.1176 46.0293 17.4117C51.3234 17.7353 56.8234 19.0882 60.7352 22.9117C62.9999 25.1176 64.4411 28.0588 65.0881 31.1176C65.294 32.0882 65.1469 33.147 64.9117 34.0588C64.2352 36.6176 63.5881 39.0588 63.5293 41.7059C63.5587 45.647 63.4411 49.6764 62.294 53.4706C61.4705 56 60.4999 58.5294 58.9705 60.7353C57.3822 62.9706 54.9999 64.7647 52.2646 65.2941C46.7646 66.4117 41.6175 62.9412 37.9705 59.1764C37.8234 59 38.0293 58.7941 38.2058 58.9117C40.294 60.5 42.4411 61.9706 44.7646 62.9706C51.4705 66.0588 57.0293 63.2059 59.9705 56.7353C62.4411 52.0294 63.1469 46.9412 62.9411 41.6764C62.9411 40.3529 62.9999 39.0294 63.1764 37.7059C63.3528 35.7941 63.9999 33.8823 63.9705 32C63.4705 28.9412 62.0587 26 59.9411 23.7353C54.9117 18.4117 45.2646 16.8529 38.4999 19.2647C30.5293 22.0882 28.3822 30.1176 27.9411 37.7941C27.647 42.3823 28.9999 46.8823 32.4705 50.0294L33.8528 51.4706C34.3234 52.1176 33.3234 52.8823 32.8528 52.1764Z" fill="black"/>
<path d="M36.3234 42.8235C36.3234 42.8235 35.4117 38.4117 31.1175 38.9411C27.4117 39.4117 26.1175 48.2941 34.5293 50.7647" fill="white"/>
<path d="M34.147 46.9118C33.4705 46.5294 32.9999 45.8823 32.9705 45.0882C32.9999 44.5 33.0881 43.8235 32.9411 43.2353C32.8528 42.6765 32.2646 42.5294 31.8234 42.5588C31.3528 42.647 31.0587 43.2353 30.9705 43.7059C30.9705 43.7353 30.9411 43.8235 30.9411 43.8529C30.9117 44 30.6764 44 30.6175 43.8529C30.2352 42.7059 31.0881 41.4412 32.3234 41.5882C34.0587 41.7059 34.294 43.5294 33.9705 44.9118C33.794 45.5 34.0293 46.0294 34.3528 46.5294L34.4117 46.6176C34.5587 46.7941 34.3234 47.0294 34.147 46.9118Z" fill="black"/>
<path d="M57.6764 39.7059C58.1175 41.7941 58.9411 43.7353 59.9705 45.5588C60.8822 47.7941 58.5293 49.9118 56.4411 49.8235C56.2058 49.8235 56.1764 49.5 56.3822 49.4412C57.7058 49.0294 58.9117 48.1471 59.1175 46.7941C59.2058 46.3823 59.0881 46.0294 58.8822 45.6765C57.9117 43.8529 57.3234 41.7647 57.4705 39.7059C57.4705 39.5588 57.6764 39.5588 57.6764 39.7059Z" fill="black"/>
<path d="M36.1765 42.8529C35.5 41.1176 34.0294 39.4705 32.0588 39.4999C31.8824 39.4705 31.5882 39.5294 31.4118 39.5294C30.9118 39.5588 30.5 39.7352 30.1177 40.0882C28.2353 41.9705 28.5588 45.2941 30.0882 47.3823C30.6177 48.1176 31.2941 48.7647 32.0588 49.2941C32.8235 49.8235 33.6765 50.2352 34.5882 50.5882C34.7941 50.647 34.7059 50.9705 34.5 50.9411C32.5294 50.5294 30.6471 49.5588 29.353 47.9411C27.353 45.5294 26.9412 41.4999 29.3235 39.147C29.853 38.6764 30.5882 38.3235 31.3235 38.3235C31.5588 38.3235 31.9118 38.2647 32.1471 38.3235C33.3824 38.3823 34.5588 38.9999 35.3235 39.9705C36 40.7941 36.3824 41.7941 36.5 42.7941C36.5 42.9705 36.2353 43.0294 36.1765 42.8529Z" fill="black"/>
<path d="M55.7058 52.6177C55.2058 52.9706 54.4705 52.6765 53.9411 52.9118C53.5587 53.0294 52.9411 53.5588 52.0587 53.5C51.3528 53.4412 50.9999 53.0883 50.4116 52.8236C49.794 52.6177 49.1469 52.2353 48.7352 51.7353C48.6469 51.6471 48.6469 51.5294 48.7352 51.4412C48.8528 51.3236 48.9705 51.4118 49.0881 51.4706C49.3528 51.6177 49.5587 51.7353 49.7646 51.7941C49.9705 51.853 50.1764 51.7941 50.4999 51.7941C50.8234 51.7647 51.294 51.9118 51.5881 52.1471C51.794 52.2941 52.0293 52.3824 52.2058 52.4118C52.6764 52.5 53.2646 52.1177 53.7646 52.0588C54.1175 52 54.4999 52.0294 54.794 52.1177C55.0881 52.2059 55.294 52.2647 55.5293 52.2059C55.794 52.1471 55.9411 52.5 55.7058 52.6177Z" fill="black"/>
<path d="M51.0293 36.5883C51.6763 36.6765 52.1763 36 51.9411 35.353C51.8234 35 51.6175 34.6765 51.294 34.4706C50.294 33.853 46.5587 33.7942 44.5881 35.2059C42.8234 36.5 48.0881 36.1765 51.0293 36.5883Z" fill="black"/>
<path d="M59.1763 36.9118C58.6469 36.9118 58.3234 36.2353 58.5881 35.6765C58.7352 35.3824 58.9411 35.1177 59.2352 34.9706C60.1469 34.5294 62.5881 34.7941 63.6763 36.2941C64.6469 37.6177 61.6175 36.8824 59.1763 36.9118Z" fill="black"/>
<path d="M50.0588 40.4706C49.0294 41.3824 47.4412 41.3824 46.2059 40.9118C46 40.8235 44.8235 40.2941 45.0588 40C45.0882 39.9706 45.1471 39.9412 45.1765 39.9412C46 39.9706 46.7647 40.0588 47.5588 40.1177C48.3529 40.1765 49.0588 40.1471 49.8824 40.1177C50.0882 40.1177 50.2059 40.353 50.0588 40.4706Z" fill="black"/>
<path d="M61.6763 40.9706C60.7352 42.0589 58.8234 41.9118 57.9411 40.853C57.8528 40.7647 57.941 40.5883 58.0587 40.6177C58.3822 40.6471 58.6763 40.7059 58.9705 40.7353C59.8528 40.8824 60.5881 40.853 61.5293 40.8236C61.6763 40.7647 61.7352 40.9118 61.6763 40.9706Z" fill="black"/>
<path d="M50.4707 16.1177C37.2942 14.853 32.9119 19.2647 31.1766 20.8236C28.7354 22.9706 25.0295 31.4706 25.1766 36.3236C25.353 43.0883 30.7648 50.2353 31.0001 50.5883C32.206 52.3824 33.4413 53.4706 33.7648 53.853C33.5883 53.2059 33.2942 50.8824 33.5589 50.4706C26.206 47.6471 27.5295 39.4412 31.1178 38.9706C34.8825 38.5 36.0589 41.853 36.2648 42.6765C36.2648 42.6765 36.2648 42.7647 36.2942 42.9118C36.3236 42.9118 36.353 42.9412 36.3825 42.9412C37.6766 43.3824 38.8825 42.0883 38.4413 40.8236C37.7648 38.9706 37.0001 36.8236 36.8825 35.4412C36.706 31.4412 38.3236 26.8824 50.2354 27.5294C51.7648 27.6177 53.0883 27.853 54.3825 28.1177C55.0295 28.2941 56.7648 28.9706 56.1766 30.6471C55.6178 32.2647 54.4707 30.9412 54.1472 31.0883C53.9707 31.1765 55.0883 32.6765 56.7354 32.3824C58.0883 32.1471 59.1766 30.7647 58.706 28.9412C59.1766 29 59.6766 29.0588 60.1766 29.1177C63.3531 29.353 66.206 26.8824 66.1178 23.7059C66.0295 20.4706 63.0001 17.3236 50.4707 16.1177Z" fill="black"/>
<path d="M33.8532 53.9706C33.8532 53.9412 33.8238 53.9118 33.7649 53.8235C33.8238 54 33.8532 54.0588 33.8532 53.9706Z" fill="black"/>
</g>
</svg>
